<mxfile host="app.diagrams.net" agent="Mozilla/5.0 (X11; Linux x86_64) AppleWebKit/537.36 (KHTML, like Gecko) Chrome/131.0.0.0 Safari/537.36" version="24.8.6">
  <diagram id="sAPiVkavU_vM4pkCJuUF" name="ページ1">
    <mxGraphModel dx="1185" dy="702" grid="1" gridSize="10" guides="1" tooltips="1" connect="1" arrows="1" fold="1" page="1" pageScale="1" pageWidth="827" pageHeight="1169" math="0" shadow="0">
      <root>
        <mxCell id="0" />
        <mxCell id="1" parent="0" />
        <mxCell id="2hfiS1e1vaS1avcaZc8Z-1" value="" style="ellipse;whiteSpace=wrap;html=1;sketch=1;hachureGap=4;jiggle=2;curveFitting=1;fontFamily=Architects Daughter;fontSource=https%3A%2F%2Ffonts.googleapis.com%2Fcss%3Ffamily%3DArchitects%2BDaughter;" vertex="1" parent="1">
          <mxGeometry x="480" y="1040" width="120" height="80" as="geometry" />
        </mxCell>
        <mxCell id="2hfiS1e1vaS1avcaZc8Z-41" value="" style="group" vertex="1" connectable="0" parent="1">
          <mxGeometry x="75" y="80" width="465" height="290" as="geometry" />
        </mxCell>
        <mxCell id="2hfiS1e1vaS1avcaZc8Z-2" value="run" style="rounded=0;whiteSpace=wrap;html=1;sketch=1;hachureGap=4;jiggle=2;curveFitting=1;fontFamily=Architects Daughter;fontSource=https%3A%2F%2Ffonts.googleapis.com%2Fcss%3Ffamily%3DArchitects%2BDaughter;" vertex="1" parent="2hfiS1e1vaS1avcaZc8Z-41">
          <mxGeometry x="125" width="100" height="30" as="geometry" />
        </mxCell>
        <mxCell id="2hfiS1e1vaS1avcaZc8Z-4" value="" style="endArrow=none;html=1;rounded=0;sketch=1;hachureGap=4;jiggle=2;curveFitting=1;fontFamily=Architects Daughter;fontSource=https%3A%2F%2Ffonts.googleapis.com%2Fcss%3Ffamily%3DArchitects%2BDaughter;entryX=0.5;entryY=1;entryDx=0;entryDy=0;" edge="1" parent="2hfiS1e1vaS1avcaZc8Z-41" target="2hfiS1e1vaS1avcaZc8Z-2">
          <mxGeometry width="50" height="50" relative="1" as="geometry">
            <mxPoint x="175" y="280" as="sourcePoint" />
            <mxPoint x="285" y="220" as="targetPoint" />
          </mxGeometry>
        </mxCell>
        <mxCell id="2hfiS1e1vaS1avcaZc8Z-8" value="コンテナの構造体をつくる" style="text;html=1;align=left;verticalAlign=middle;whiteSpace=wrap;rounded=0;fontFamily=Architects Daughter;fontSource=https%3A%2F%2Ffonts.googleapis.com%2Fcss%3Ffamily%3DArchitects%2BDaughter;sketch=1;curveFitting=1;jiggle=2;strokeColor=none;" vertex="1" parent="2hfiS1e1vaS1avcaZc8Z-41">
          <mxGeometry x="5" y="30" width="150" height="40" as="geometry" />
        </mxCell>
        <mxCell id="2hfiS1e1vaS1avcaZc8Z-10" value="コンテナのttyと通信するチャネル&lt;span style=&quot;background-color: initial;&quot;&gt;をつくる&lt;/span&gt;" style="text;html=1;align=left;verticalAlign=middle;whiteSpace=wrap;rounded=0;fontFamily=Architects Daughter;fontSource=https%3A%2F%2Ffonts.googleapis.com%2Fcss%3Ffamily%3DArchitects%2BDaughter;sketch=1;curveFitting=1;jiggle=2;strokeColor=none;" vertex="1" parent="2hfiS1e1vaS1avcaZc8Z-41">
          <mxGeometry x="10" y="70" width="140" height="40" as="geometry" />
        </mxCell>
        <mxCell id="2hfiS1e1vaS1avcaZc8Z-13" value="コンテナの起動を知らされる&lt;span style=&quot;background-color: initial;&quot;&gt;名前付きパイプをつくる&lt;/span&gt;" style="text;html=1;align=left;verticalAlign=middle;whiteSpace=wrap;rounded=0;fontFamily=Architects Daughter;fontSource=https%3A%2F%2Ffonts.googleapis.com%2Fcss%3Ffamily%3DArchitects%2BDaughter;sketch=1;curveFitting=1;jiggle=2;strokeColor=none;" vertex="1" parent="2hfiS1e1vaS1avcaZc8Z-41">
          <mxGeometry y="140" width="160" height="40" as="geometry" />
        </mxCell>
        <mxCell id="2hfiS1e1vaS1avcaZc8Z-15" value="run initを非同期に実行" style="text;html=1;align=left;verticalAlign=middle;whiteSpace=wrap;rounded=0;fontFamily=Architects Daughter;fontSource=https%3A%2F%2Ffonts.googleapis.com%2Fcss%3Ffamily%3DArchitects%2BDaughter;sketch=1;curveFitting=1;jiggle=2;strokeColor=none;" vertex="1" parent="2hfiS1e1vaS1avcaZc8Z-41">
          <mxGeometry x="5" y="190" width="160" height="30" as="geometry" />
        </mxCell>
        <mxCell id="2hfiS1e1vaS1avcaZc8Z-38" style="edgeStyle=orthogonalEdgeStyle;rounded=0;sketch=1;hachureGap=4;jiggle=2;curveFitting=1;orthogonalLoop=1;jettySize=auto;html=1;entryX=0;entryY=0.5;entryDx=0;entryDy=0;fontFamily=Architects Daughter;fontSource=https%3A%2F%2Ffonts.googleapis.com%2Fcss%3Ffamily%3DArchitects%2BDaughter;endArrow=none;endFill=0;dashed=1;" edge="1" parent="2hfiS1e1vaS1avcaZc8Z-41" target="2hfiS1e1vaS1avcaZc8Z-18">
          <mxGeometry relative="1" as="geometry">
            <mxPoint x="175" y="200" as="sourcePoint" />
          </mxGeometry>
        </mxCell>
        <mxCell id="2hfiS1e1vaS1avcaZc8Z-16" value="パイプからの通信を待つ" style="text;html=1;align=left;verticalAlign=middle;whiteSpace=wrap;rounded=0;fontFamily=Architects Daughter;fontSource=https%3A%2F%2Ffonts.googleapis.com%2Fcss%3Ffamily%3DArchitects%2BDaughter;sketch=1;curveFitting=1;jiggle=2;strokeColor=none;" vertex="1" parent="2hfiS1e1vaS1avcaZc8Z-41">
          <mxGeometry x="5" y="220" width="160" height="30" as="geometry" />
        </mxCell>
        <mxCell id="2hfiS1e1vaS1avcaZc8Z-17" value="initの終了シグナルSIGCHLDを待つ" style="text;html=1;align=left;verticalAlign=middle;whiteSpace=wrap;rounded=0;fontFamily=Architects Daughter;fontSource=https%3A%2F%2Ffonts.googleapis.com%2Fcss%3Ffamily%3DArchitects%2BDaughter;sketch=1;curveFitting=1;jiggle=2;strokeColor=none;" vertex="1" parent="2hfiS1e1vaS1avcaZc8Z-41">
          <mxGeometry x="15" y="250" width="140" height="40" as="geometry" />
        </mxCell>
        <mxCell id="2hfiS1e1vaS1avcaZc8Z-18" value="runc init" style="rounded=0;whiteSpace=wrap;html=1;sketch=1;hachureGap=4;jiggle=2;curveFitting=1;fontFamily=Architects Daughter;fontSource=https%3A%2F%2Ffonts.googleapis.com%2Fcss%3Ffamily%3DArchitects%2BDaughter;" vertex="1" parent="2hfiS1e1vaS1avcaZc8Z-41">
          <mxGeometry x="285" width="100" height="30" as="geometry" />
        </mxCell>
        <mxCell id="2hfiS1e1vaS1avcaZc8Z-19" value="/bin/sh" style="rounded=0;whiteSpace=wrap;html=1;sketch=1;hachureGap=4;jiggle=2;curveFitting=1;fontFamily=Architects Daughter;fontSource=https%3A%2F%2Ffonts.googleapis.com%2Fcss%3Ffamily%3DArchitects%2BDaughter;" vertex="1" parent="2hfiS1e1vaS1avcaZc8Z-41">
          <mxGeometry x="285" y="190" width="100" height="30" as="geometry" />
        </mxCell>
        <mxCell id="2hfiS1e1vaS1avcaZc8Z-22" value="" style="endArrow=none;html=1;rounded=0;sketch=1;hachureGap=4;jiggle=2;curveFitting=1;fontFamily=Architects Daughter;fontSource=https%3A%2F%2Ffonts.googleapis.com%2Fcss%3Ffamily%3DArchitects%2BDaughter;entryX=0.5;entryY=1;entryDx=0;entryDy=0;exitX=0.5;exitY=0;exitDx=0;exitDy=0;" edge="1" parent="2hfiS1e1vaS1avcaZc8Z-41" source="2hfiS1e1vaS1avcaZc8Z-19" target="2hfiS1e1vaS1avcaZc8Z-18">
          <mxGeometry width="50" height="50" relative="1" as="geometry">
            <mxPoint x="185" y="320" as="sourcePoint" />
            <mxPoint x="185" y="40" as="targetPoint" />
          </mxGeometry>
        </mxCell>
        <mxCell id="2hfiS1e1vaS1avcaZc8Z-24" value="chroot" style="text;html=1;align=left;verticalAlign=middle;whiteSpace=wrap;rounded=0;fontFamily=Architects Daughter;fontSource=https%3A%2F%2Ffonts.googleapis.com%2Fcss%3Ffamily%3DArchitects%2BDaughter;sketch=1;curveFitting=1;jiggle=2;strokeColor=none;" vertex="1" parent="2hfiS1e1vaS1avcaZc8Z-41">
          <mxGeometry x="345" y="40" width="50" height="30" as="geometry" />
        </mxCell>
        <mxCell id="2hfiS1e1vaS1avcaZc8Z-25" value="exec" style="text;html=1;align=left;verticalAlign=middle;whiteSpace=wrap;rounded=0;fontFamily=Architects Daughter;fontSource=https%3A%2F%2Ffonts.googleapis.com%2Fcss%3Ffamily%3DArchitects%2BDaughter;sketch=1;curveFitting=1;jiggle=2;strokeColor=none;" vertex="1" parent="2hfiS1e1vaS1avcaZc8Z-41">
          <mxGeometry x="339" y="150" width="50" height="30" as="geometry" />
        </mxCell>
        <mxCell id="2hfiS1e1vaS1avcaZc8Z-26" value="パイプに書き込む" style="text;html=1;align=left;verticalAlign=middle;whiteSpace=wrap;rounded=0;fontFamily=Architects Daughter;fontSource=https%3A%2F%2Ffonts.googleapis.com%2Fcss%3Ffamily%3DArchitects%2BDaughter;sketch=1;curveFitting=1;jiggle=2;strokeColor=none;" vertex="1" parent="2hfiS1e1vaS1avcaZc8Z-41">
          <mxGeometry x="345" y="115" width="106" height="30" as="geometry" />
        </mxCell>
        <mxCell id="2hfiS1e1vaS1avcaZc8Z-28" value="コンソールをつくる" style="text;html=1;align=left;verticalAlign=middle;whiteSpace=wrap;rounded=0;fontFamily=Architects Daughter;fontSource=https%3A%2F%2Ffonts.googleapis.com%2Fcss%3Ffamily%3DArchitects%2BDaughter;sketch=1;curveFitting=1;jiggle=2;strokeColor=none;" vertex="1" parent="2hfiS1e1vaS1avcaZc8Z-41">
          <mxGeometry x="345" y="80" width="120" height="30" as="geometry" />
        </mxCell>
        <mxCell id="2hfiS1e1vaS1avcaZc8Z-30" value="exit" style="text;html=1;align=left;verticalAlign=middle;whiteSpace=wrap;rounded=0;fontFamily=Architects Daughter;fontSource=https%3A%2F%2Ffonts.googleapis.com%2Fcss%3Ffamily%3DArchitects%2BDaughter;sketch=1;curveFitting=1;jiggle=2;strokeColor=none;" vertex="1" parent="2hfiS1e1vaS1avcaZc8Z-41">
          <mxGeometry x="345" y="230" width="50" height="30" as="geometry" />
        </mxCell>
        <mxCell id="2hfiS1e1vaS1avcaZc8Z-31" value="" style="endArrow=none;html=1;rounded=0;sketch=1;hachureGap=4;jiggle=2;curveFitting=1;fontFamily=Architects Daughter;fontSource=https%3A%2F%2Ffonts.googleapis.com%2Fcss%3Ffamily%3DArchitects%2BDaughter;entryX=0.5;entryY=1;entryDx=0;entryDy=0;" edge="1" parent="2hfiS1e1vaS1avcaZc8Z-41">
          <mxGeometry width="50" height="50" relative="1" as="geometry">
            <mxPoint x="335" y="280" as="sourcePoint" />
            <mxPoint x="335" y="220" as="targetPoint" />
          </mxGeometry>
        </mxCell>
        <mxCell id="2hfiS1e1vaS1avcaZc8Z-39" style="edgeStyle=orthogonalEdgeStyle;rounded=0;sketch=1;hachureGap=4;jiggle=2;curveFitting=1;orthogonalLoop=1;jettySize=auto;html=1;fontFamily=Architects Daughter;fontSource=https%3A%2F%2Ffonts.googleapis.com%2Fcss%3Ffamily%3DArchitects%2BDaughter;endArrow=none;endFill=0;dashed=1;" edge="1" parent="2hfiS1e1vaS1avcaZc8Z-41">
          <mxGeometry relative="1" as="geometry">
            <mxPoint x="175" y="230" as="sourcePoint" />
            <mxPoint x="335" y="130" as="targetPoint" />
            <Array as="points">
              <mxPoint x="175" y="231" />
              <mxPoint x="265" y="231" />
              <mxPoint x="265" y="130" />
            </Array>
          </mxGeometry>
        </mxCell>
        <mxCell id="2hfiS1e1vaS1avcaZc8Z-40" style="edgeStyle=orthogonalEdgeStyle;rounded=0;sketch=1;hachureGap=4;jiggle=2;curveFitting=1;orthogonalLoop=1;jettySize=auto;html=1;fontFamily=Architects Daughter;fontSource=https%3A%2F%2Ffonts.googleapis.com%2Fcss%3Ffamily%3DArchitects%2BDaughter;endArrow=none;endFill=0;dashed=1;" edge="1" parent="2hfiS1e1vaS1avcaZc8Z-41">
          <mxGeometry relative="1" as="geometry">
            <mxPoint x="175" y="260" as="sourcePoint" />
            <mxPoint x="335" y="260" as="targetPoint" />
            <Array as="points">
              <mxPoint x="335" y="260" />
            </Array>
          </mxGeometry>
        </mxCell>
      </root>
    </mxGraphModel>
  </diagram>
</mxfile>
